<?xml version="1.0" encoding="UTF-8"?>
<svg width="76px" height="200px" viewBox="0 0 76 200" version="1.1" xmlns="http://www.w3.org/2000/svg" xmlns:xlink="http://www.w3.org/1999/xlink">
    <title>drag</title>
    <g id="页面-1" stroke="none" stroke-width="1" fill="none" fill-rule="evenodd">
        <g id="drag" transform="translate(0.500000, 0.000000)" fill-rule="nonzero">
            <path d="M33.3333334,41.6666666 L33.3333334,0 L41.6666666,0 L41.6666666,41.6666666 L66.6666666,41.6666666 C71.6666666,41.6666666 75,45 75,50 L75,158.333333 C75,163.333333 71.6666666,166.666667 66.6666666,166.666667 L41.6666666,166.666667 L41.6666666,200 L33.3333334,200 L33.3333334,166.666667 L8.3333334,166.666667 C3.3333334,166.666667 0,163.333333 0,158.333333 L0,50 C0,45 3.3333334,41.6666666 8.3333334,41.6666666 L33.3333334,41.6666666 Z" id="路径" fill="#FFA940"></path>
            <path d="M18.3333334,70.8333334 C18.3333334,68.3333334 20,66.6666666 22.5,66.6666666 C25,66.6666666 26.6666666,68.3333332 26.6666666,70.8333334 L26.6666666,137.5 C26.6666666,140 25,141.666667 22.5,141.666667 C20,141.666667 18.3333334,140 18.3333334,137.5 L18.3333334,70.8333334 Z M48.3333334,70.8333334 C48.3333334,68.3333334 50,66.6666666 52.5,66.6666666 C55,66.6666666 56.6666666,68.3333332 56.6666666,70.8333334 L56.6666666,137.5 C56.6666666,140 55,141.666667 52.5,141.666667 C50,141.666667 48.3333334,140 48.3333334,137.5 L48.3333334,70.8333334 Z" id="形状" fill="#FFFFFF"></path>
        </g>
    </g>
</svg>